<svg xmlns="http://www.w3.org/2000/svg" xmlns:xlink="http://www.w3.org/1999/xlink" id="Layer_1" x="0" y="0" version="1.1" viewBox="-293 385 24 24" xml:space="preserve" style="enable-background:new -293 385 24 24"><style type="text/css">.st0{fill:#e6e6e6}</style><title>YouTube icon</title><path d="M-269.5,391.2c-0.3-1-1.1-1.8-2.1-2.1c-1.9-0.5-9.4-0.5-9.4-0.5s-7.5,0-9.4,0.5c-1,0.3-1.8,1.1-2.1,2.1	c-0.4,1.9-0.5,3.9-0.5,5.8c0,1.9,0.2,3.9,0.5,5.8c0.3,1,1.1,1.8,2.1,2.1c1.9,0.5,9.4,0.5,9.4,0.5s7.5,0,9.4-0.5	c1-0.3,1.8-1.1,2.1-2.1c0.3-1.9,0.5-3.8,0.5-5.8C-269,395.1-269.2,393.1-269.5,391.2z M-283.4,400.6v-7.2l6.3,3.6L-283.4,400.6z" class="st0"/></svg>